<?xml version="1.0" encoding="UTF-8"?>
<!-- HeroKidStory PDF: bg-alternatives #48 Yildizli Kiyi -->
<svg xmlns="http://www.w3.org/2000/svg" viewBox="0 0 100 141.4" preserveAspectRatio="none">
  <path d="M0,116 Q22,106 48,118 T100,114 L100,141.4 L0,141.4 Z" fill="rgba(255,208,195,0.15)"/>
  <path d="M0,123 Q32,115 58,126 T100,121 L100,141.4 L0,141.4 Z" fill="rgba(195,238,248,0.13)"/>
  <path d="M0,127 Q28,122 55,129 T100,125" fill="none" stroke="rgba(41,181,168,0.34)" stroke-width="0.52"/>
  <ellipse cx="28" cy="132" rx="8" ry="4" fill="rgba(255,182,193,0.1)"/>
  <g fill="none" stroke-linecap="round" opacity="0.4">
    <path d="M5,14 Q9,9 17,15 T26,11" stroke="#29b5a8" stroke-width="0.5"/>
    <path d="M78,10 Q84,6 92,13" stroke="#f0a8b8" stroke-width="0.48"/>
  </g>
  <path d="M12,20 L13.5,24 L18,24 L14.5,26.5 L16,31 L12,28.5 L8,31 L9.5,26.5 L6,24 L10.5,24 Z" fill="#29b5a8" opacity="0.3"/>
  <path d="M86,22 L87.5,25 L91,25 L88,27 L89.5,31 L86,29 L82.5,31 L84,27 L81,25 L85,25 Z" fill="#1ba8e0" opacity="0.24"/>
  <circle cx="72" cy="18" r="1.8" fill="none" stroke="#f0a8b8" stroke-width="0.42" opacity="0.42"/>
</svg>
